Coordinates
version=1
nRows=8
nColumns=40
inDegrees=yes

Units are S.I. units (second, meters, Newtons, ...)
Angles are in degrees.

endheader
time	pelvis_tilt	pelvis_list	pelvis_rotation	pelvis_tx	pelvis_ty	pelvis_tz	hip_flexion_r	hip_adduction_r	hip_rotation_r	knee_angle_r	knee_angle_r_beta	ankle_angle_r	subtalar_angle_r	mtp_angle_r	hip_flexion_l	hip_adduction_l	hip_rotation_l	knee_angle_l	knee_angle_l_beta	ankle_angle_l	subtalar_angle_l	mtp_angle_l	lumbar_extension	lumbar_bending	lumbar_rotation	arm_flex_r	arm_add_r	arm_rot_r	elbow_flex_r	pro_sup_r	wrist_flex_r	wrist_dev_r	arm_flex_l	arm_add_l	arm_rot_l	elbow_flex_l	pro_sup_l	wrist_flex_l	wrist_dev_l
     14.19678571	     -3.69666417	     -3.55524735	     -3.54504675	      0.88691508	      0.92513846	      0.44890080	     26.02748064	     -0.11909582	    -12.06022182	     16.68815264	     16.68815264	      4.45627480	      2.41224781	      5.49863092	     -0.70491784	     -3.23209760	    -12.17286301	     11.92836472	     11.92836472	     16.85623736	    -10.06048397	     -3.08695106	     -9.10521662	      6.53279469	      3.48142363	    -15.08626265	    -12.33342568	    -10.00438980	     23.62774599	     46.73365969	      0.00000000	      0.00000000	     23.69095321	    -15.83936627	     -7.18532161	     73.31587738	     47.56811695	      0.00000000	      0.00000000
     14.20857143	     -3.67510047	     -3.67229598	     -3.60964785	      0.88824425	      0.92368471	      0.45086892	     25.70357354	      0.14737078	    -12.29110493	     16.76684742	     16.76684742	      4.46538145	      2.28772997	      5.25977219	     -1.26278412	     -3.45843387	    -12.12209421	     12.11291491	     12.11291491	     17.38699567	    -10.22893188	     -3.09280802	     -8.95716516	      6.68894920	      3.57576394	    -14.93808872	    -12.27299195	    -10.05610499	     23.63517010	     46.73943904	      0.00000000	      0.00000000	     23.81547924	    -15.69866733	     -7.11704619	     73.64818415	     47.57316762	      0.00000000	      0.00000000
     14.22035714	     -3.66119617	     -3.82528225	     -3.62243309	      0.88967168	      0.92229748	      0.45292099	     25.43773844	      0.41439294	    -12.41072304	     17.21530276	     17.21530276	      4.43104586	      1.92493573	      4.66709527	     -1.75949293	     -3.75778233	    -12.04848097	     12.40734429	     12.40734429	     17.93277798	    -10.33224930	     -2.88762207	     -8.78130636	      6.83817797	      3.68249029	    -14.66681339	    -12.20289375	    -10.12042712	     23.66567042	     46.74661821	      0.00000000	      0.00000000	     23.79911836	    -15.52681798	     -7.04941117	     74.05331857	     47.57900688	      0.00000000	      0.00000000
     14.23214286	     -3.64234734	     -4.00537647	     -3.61486691	      0.89118194	      0.92104395	      0.45500135	     25.15574269	      0.68588852	    -12.53830357	     17.82363196	     17.82363196	      4.44191867	      1.53504350	      4.20032822	     -2.26454100	     -4.08948803	    -11.98150156	     12.69062933	     12.69062933	     18.42649636	    -10.50326433	     -2.77046207	     -8.63385472	      7.08704861	      3.72276171	    -14.25660281	    -12.09858078	    -10.13787476	     23.76617079	     46.74773117	      0.00000000	      0.00000000	     23.68970632	    -15.28337549	     -6.95438901	     74.23498680	     47.57653163	      0.00000000	      0.00000000
     14.24392857	     -3.61048568	     -4.09133095	     -3.56644034	      0.89275159	      0.91976798	      0.45726921	     24.78846958	      0.97251176	    -12.12615937	     18.23652554	     18.23652554	      2.78914300	     -0.07308324	     -1.18745098	     -2.37815224	     -4.48028960	    -12.14743398	     13.91024099	     13.91024099	     20.57771404	     -9.60643123	      0.65182701	     -8.49395522	      7.16449613	      3.35241933	    -13.24841077	    -11.96418746	    -10.77847403	     23.15712947	     46.84473953	      0.00000000	      0.00000000	     22.95843330	    -15.38961712	     -7.27078741	     75.58147359	     47.65115424	      0.00000000	      0.00000000
     14.25571429	     -3.55578229	     -4.26078668	     -3.48987629	      0.89424146	      0.91880107	      0.45953196	     24.59183688	      1.23167320	    -11.94832219	     19.21194608	     19.21194608	      2.95043713	     -0.87894388	     -1.71853490	     -2.61857187	     -4.89391905	    -11.93785527	     14.73807612	     14.73807612	     20.95090050	    -10.00801713	      0.72875091	     -8.38068984	      7.35059811	      3.40660460	    -12.62540826	    -11.84727535	    -10.83090864	     23.24802281	     46.85180479	      0.00000000	      0.00000000	     22.77562395	    -15.06851093	     -7.15665615	     75.52898910	     47.64711053	      0.00000000	      0.00000000
     14.26750000	     -3.47553015	     -4.43476793	     -3.37656603	      0.89568248	      0.91809772	      0.46188545	     24.36366115	      1.50684659	    -11.69296320	     20.17762541	     20.17762541	      3.20956814	     -1.72929582	     -2.26619580	     -2.73574805	     -5.36174862	    -11.69785604	     15.84142365	     15.84142365	     21.28164709	    -10.42044931	      0.85842511	     -8.32007617	      7.52537791	      3.42804133	    -11.83612248	    -11.72173054	    -10.86933175	     23.36977713	     46.85790007	      0.00000000	      0.00000000	     22.50302709	    -14.78458639	     -7.03919411	     75.45890912	     47.64076989	      0.00000000	      0.00000000
     14.27928571	     -3.33986130	     -4.61331606	     -3.22971169	      0.89708822	      0.91777500	      0.46426926	     24.02998199	      1.79390156	    -11.45193520	     21.03557638	     21.03557638	      3.53798314	     -2.53490206	     -2.71306727	     -2.75349910	     -5.88045505	    -11.44337813	     17.21642576	     17.21642576	     21.47531291	    -10.89199616	      0.93419612	     -8.32388370	      7.69649335	      3.42136788	    -10.93582503	    -11.61761450	    -10.89872456	     23.51055469	     46.86347510	      0.00000000	      0.00000000	     22.14268150	    -14.48039072	     -6.90911246	     75.29880825	     47.63059803	      0.00000000	      0.00000000
